<svg xmlns="http://www.w3.org/2000/svg" viewBox="0.13 0.087 37.37 40.16"><path d="m21.13.13.25 5L23 3.88h.25c.25.12.5.12.63.37.12 0 .12.13.12.25l-.5.38-1.87 1.5h-.13l.13.5v-.13l2.12-1.62.38-.25v.25L22 6.75l-.37.38V9l.12.13V9l1.88 1.38c0 .12-.13.25-.13.37-.12.38-.25.5-.37.75l-.13-.12-1.12-.88v.5l1 .75h-.38l-.62-.37v.37l.25.5-.5.75c-.75-4.5-.75-8.75-1.13-12.87h-3.12C17 4.25 16.88 8.5 16.13 13l-.38-.75.25-.5v-.5l-.5.5h-.37L16 11v-.5l-.12.13-1 .75c-.38-.13-.38-.5-.38-1l1.63-1.25.12-.75h-.62c-.25 0-.38-.13-.63-.25h-.12L14.75 8l-.25-.12c-.25-.13-.5-.38-.75-.63v-.12h-.12V7c-.13 0-.13 0-.13-.12-.12 0-.12-.13-.12-.13V6.5h-.13V6v.13c0 .12.13.12.13.25 0 0 .12.12.12.25.13.12.38.37.63.5 0 .12.12.25.25.25.12.12.25.12.37.25h.13v.12c.5.13.87.25 1.12.13 0-.13.13-.13.13-.13v-.12h.12v-.5L14 5.5v-.25s0-.12.13-.12l2.12 1.75.13-.5-2.13-1.5v-.25c.13-.13.13-.25.25-.38.25-.12.5-.12.75-.12v.12L16.5 5l.25-4.87h-5.37l-1 1.37C9.13 1.25 9.63-1 5.25.75 2.5 1.75 1.5.63 1.88.13H.13v6.25c1.5-4.25 3.12.12 4.62.25-1.5 1-2.25 5.62-4.62 1.5v6.12C1.88 9.13 5.88 15 8 11.63c.25-.63.38-1.75.63-2 .25 2 3.12 3.12 3.87.87.13.5.75 1 1.25 1.25-.62 0-2.87.25-3.62.5l-.25.5-.5-.37c-.88.25-2.13.5-2.88.75l-1 3L4 14c-1.25.38-2.87 1.25-3.87 2v19.5c.62 1 4 2.5 5.5 2.88v-2l3.62 1v1.87l3.88.63v-1.75l3.75.25v1.87l3.75-.12v-1.75l3.62-.38v-1.75l-3.62.25v1.88h-3.75V36.5l-3.75-.37V38l-3.88-.62V35.5l-3.62-1v1.88c-.88-.25-2.88-1-3.75-1.75v-6.75c7.5 6.87 26.12 6.75 33.62.25v6.37c-.25.5-3.12 1.63-3.62 1.88V34.5l-3.88 1v1.88l-3.75.75v1.75l3.88-.5v-2l3.75-1v2c.12.12 4.62-1.5 5.62-2.75V15.88c-1.12-.63-2.25-1.25-3.37-1.63l-1.25 1.63.12-2.13c-1.37-.5-1.5-.62-2.37-.75l-.63.75v-1c-1.12-.25-5-1-5.37-1 .87-.25.87-.75 1.75-.25.87.25 1.5-.25 2.37.63.13-.13.25-1 .38-1 1.12 1.62 2.75.62 3.62 2 .38-.25.13-1.13.13-1.38 2.12 1 2.25.75 3-1.5 1.37-.87.87 1.75 1.62 2.75V6.5c-.62.88-1-.25-2.25.38.5-.5.75-1.5.5-2.63 0-1.25 1-1.5 1.75-.12v-4C35.88 0 36 .13 34.75 1c-.5 0-.25-.5 0-.87C33.5.13 32.88.25 32 1c-1.37 0-1.87-2-4 .25-.37 0-.75-.75-1-1.12h-5.87zm3.62 1 3.13 4.37-.25.13L24.25 1l.5.13zM22.38 1h1.37l3.5 4.88-.75.62L22.38 1zm3.87 6.88c-.25-.5-.5-.88-1.12-1 .37-.38 1.37.25 1.12 1zm-2.12 7.62v4.25c-1.5-2.25-1.5-2.62-2-4.37.5 0 1.25 0 2 .12zm-8.38-.12c-.75 2-.75 2.62-2.25 4.75V15.5l2.25-.12zM11.88 1.13h3.75l-4.5 5.37-2.25-1.62 3-3.75zM1.63 2c2.25 1.75 5.62-2.38 8.12.25L9.13 3c-1.5-1.87-3.38 1-5.88.13 1.25 2.25 4.88-.88 5.5.37l-1 1.38.5.5c-2.62.5-5.75.37-6.62-3.38zm7.12 1C7.13 2.25 5.13 4.38 4 3.5 5.5 4 7.63 1.75 8.75 3zm-.12 3.5c-2.13.63-2.5 3-3.63 3.38C6.25 9 6.63 6.38 8.63 6.5zm-7.13 4c2.75.25 2.75-5 6.75-4.25C6 6.13 5.75 10.5 3.5 10.5c3.25.5 3.13-4.87 6.63-3.62-3.63.25-1.38 7.62-8.63 3.62zm8.75-2.37c1-.13 1.5 0 1.88.87-.38-.5-1.38-.75-1.75.38C12 7.63 13.13 11 10.38 11 8.88 11 8.5 8.25 10 7.38c2.88-1.5 3.63 1.87 5.63 1.37L14 10.13v.5c-1.62.37-1.25-4-3.75-2.5zm.25 5.25c.88-.13 3.38-.5 4.25-.5V14l-2.62.38v5.12c-.5 0-1.13.13-1.75.38l.12-6.5zm-8.62 3c.5-.25 1.25-.75 1.87-.88l1.75 2.63L7 14.38c.13-.13 1.13-.38 1.88-.63l.12 6.5c-.5.13-1.25.38-1.75.63v-4.25L5.5 21.25l-1.87-3v4.5c-.5.25-1.25.63-1.75 1.25v-7.62zm3.75 12.25h7.5l2.12 2.5c-2.25 0-7.62-1.5-9.62-2.5zm16.87 2.75 2-2.75h7.63c-1.63 1.25-8.88 2.87-9.63 2.75zm13.13-4.5L23.38 27l-4.5 5.63-4.38-5.75H1.88v-1.5l9.62-2.63c6.63-2.37 6-14.75 6.63-21.62h1.62c.38 6.87 0 19.25 6.5 21.62l9.38 2.5v1.63zm-5-12.5c.75.12 1.25.25 1.62.5 0 1.75-.37 2.62.88 2.87 1.12.13 1-.62 1.12-2.25l1.38.75v5.5c.25 2.5-2.75-.12-4.88-.75v-1.75c.63.5 2.5 1.75 3.13 1.5.62-.12.37-.37.37-1.25-.62.13-2.75 0-3.62-2.12v-3zm-.5 5.12-.5 1-1.88-.62v-3.75l1.13.25c.12 2.12-.38 2.12 1.25 3.12zm-1-5.75v1.38l-2.13-.5c-.12 0 0-.13-.12 5.12-.38 0-1.13-.12-1.5-.37v-5L23.13 14v-1.25c2 .25 4 .5 6 1zm7.5-6c-1.63.88-1.38 5.13-5.13 2.13-.62.25 1.13.87.88 2.12-1.25-1.12-2.13.5-4.38-3.87-1-.25 1.5 2.25.38 3.25-2.38-1.75-1.88 1-4.25-3.38-1 .88 1.5 1.38.62 2.63-1.12-.75-1.87-1.13-2.5-1.75 0-1.75 2.25-2.25 3.5-1.13.13.25 1.5 2.5 2.25 2.5-.5-.87-2-1.87-1-3 1.5-1.37 2.88 2.63 3.88 3.25.25-1.12-2.5-3.75-2.5-3.87C30.5 4.5 32.13 13 34.5 8.75c-2.37 2.13-1.87-2.37-5.75-2.62.63-1 3.38-1.13 3.63-.13-.25-.12-.75 0-1 .38 0 0 2.62.25 2.87 1.37-.62-.12-1-.12-1.37 0 1.5 1.38 2.75-.87 3.75 0zm-4.5-2.5c.87-.37 1.5-1.5 2.12-2-.5 1.25-1.25 2.5-2.12 2zm-1.63-4c-.62 2.38 1.88-.25 3.13-.12 0 .12-1.38 1.75 0 1.12.87-.75 1.75-.75 3.12-.62-.87.5-1.37.5-1.5 1.25 0 2.25 0 4.75-2.25 3.5.13-.5.13-.38.13-.88C33.88 5.5 35 2.25 35 2c-1.12.88-1.87 2.88-3.12 2.88-.75-.5-1.25 0-1.75 0-.75-.88-1.38-1.75-1.63-2.63.25-.75 1.63-1.37 2-1zM29 4.63l-.75.5-3-4h1.25l2.5 3.5z" fill="#000000"/></svg>
